{
    "asset" : {
        "generator" : "Khronos glTF Blender I/O v1.4.40",
        "version" : "2.0"
    },
    "scene" : 0,
    "scenes" : [
        {
            "name" : "Scene",
            "nodes" : [
                0,
                1,
                2,
                3
            ]
        }
    ],
    "nodes" : [
        {
            "name" : "Camera",
            "rotation" : [
                0.483536034822464,
                0.33687159419059753,
                -0.20870360732078552,
                0.7804827094078064
            ],
            "translation" : [
                7.358891487121582,
                4.958309173583984,
                6.925790786743164
            ]
        },
        {
            "name" : "BezierCircle",
            "rotation" : [
                0,
                0,
                -0.7071067690849304,
                0.7071068286895752
            ],
            "scale" : [
                1,
                -0.5030295848846436,
                1
            ]
        },
        {
            "name" : "BezierCircle.001",
            "rotation" : [
                0,
                0,
                -0.7071067690849304,
                0.7071068286895752
            ],
            "scale" : [
                1,
                -0.5030295848846436,
                1
            ],
            "translation" : [
                6.1144866943359375,
                0,
                0
            ]
        },
        {
            "mesh" : 0,
            "name" : "Cube.020",
            "rotation" : [
                -0.5219349265098572,
                0,
                0,
                0.8529853224754333
            ],
            "scale" : [
                1.2798335552215576,
                0.2956784963607788,
                -0.2280585765838623
            ],
            "translation" : [
                6.0027971267700195,
                -0.7237709760665894,
                5.07658052444458
            ]
        }
    ],
    "materials" : [
        {
            "doubleSided" : true,
            "name" : "Material.001",
            "pbrMetallicRoughness" : {
                "baseColorFactor" : [
                    0,
                    0,
                    0,
                    1
                ],
                "metallicFactor" : 0,
                "roughnessFactor" : 0.5
            }
        },
        {
            "doubleSided" : true,
            "name" : "Material.002",
            "pbrMetallicRoughness" : {
                "baseColorFactor" : [
                    0,
                    0.0782865658402443,
                    0.0019238865934312344,
                    1
                ],
                "metallicFactor" : 0,
                "roughnessFactor" : 0.5
            }
        }
    ],
    "meshes" : [
        {
            "name" : "Cube.022",
            "primitives" : [
                {
                    "attributes" : {
                        "POSITION" : 0,
                        "NORMAL" : 1,
                        "TEXCOORD_0" : 2
                    },
                    "indices" : 3,
                    "material" : 0
                },
                {
                    "attributes" : {
                        "POSITION" : 4,
                        "NORMAL" : 5,
                        "TEXCOORD_0" : 6
                    },
                    "indices" : 7,
                    "material" : 1
                }
            ]
        }
    ],
    "accessors" : [
        {
            "bufferView" : 0,
            "componentType" : 5126,
            "count" : 864,
            "max" : [
                1.0082850456237793,
                32.990116119384766,
                22.12184715270996
            ],
            "min" : [
                -5.777564525604248,
                0.3650994598865509,
                -6.608208656311035
            ],
            "type" : "VEC3"
        },
        {
            "bufferView" : 1,
            "componentType" : 5126,
            "count" : 864,
            "type" : "VEC3"
        },
        {
            "bufferView" : 2,
            "componentType" : 5126,
            "count" : 864,
            "type" : "VEC2"
        },
        {
            "bufferView" : 3,
            "componentType" : 5123,
            "count" : 1296,
            "type" : "SCALAR"
        },
        {
            "bufferView" : 4,
            "componentType" : 5126,
            "count" : 4656,
            "max" : [
                1.0173442363739014,
                32.96062469482422,
                19.626710891723633
            ],
            "min" : [
                -5.558135986328125,
                1.6019229888916016,
                -9.887286186218262
            ],
            "type" : "VEC3"
        },
        {
            "bufferView" : 5,
            "componentType" : 5126,
            "count" : 4656,
            "type" : "VEC3"
        },
        {
            "bufferView" : 6,
            "componentType" : 5126,
            "count" : 4656,
            "type" : "VEC2"
        },
        {
            "bufferView" : 7,
            "componentType" : 5123,
            "count" : 9000,
            "type" : "SCALAR"
        }
    ],
    "bufferViews" : [
        {
            "buffer" : 0,
            "byteLength" : 10368,
            "byteOffset" : 0
        },
        {
            "buffer" : 0,
            "byteLength" : 10368,
            "byteOffset" : 10368
        },
        {
            "buffer" : 0,
            "byteLength" : 6912,
            "byteOffset" : 20736
        },
        {
            "buffer" : 0,
            "byteLength" : 2592,
            "byteOffset" : 27648
        },
        {
            "buffer" : 0,
            "byteLength" : 55872,
            "byteOffset" : 30240
        },
        {
            "buffer" : 0,
            "byteLength" : 55872,
            "byteOffset" : 86112
        },
        {
            "buffer" : 0,
            "byteLength" : 37248,
            "byteOffset" : 141984
        },
        {
            "buffer" : 0,
            "byteLength" : 18000,
            "byteOffset" : 179232
        }
    ],
    "buffers" : [
        {
            "byteLength" : 197232,
            "uri" : "tankBodyV3.bin"
        }
    ]
}
