{
    "asset" : {
        "generator" : "Khronos glTF Blender I/O v1.4.40",
        "version" : "2.0"
    },
    "scene" : 0,
    "scenes" : [
        {
            "name" : "Scene",
            "nodes" : [
                0,
                1,
                2,
                3,
                4,
                5
            ]
        }
    ],
    "nodes" : [
        {
            "name" : "Camera",
            "rotation" : [
                0.483536034822464,
                0.33687159419059753,
                -0.20870360732078552,
                0.7804827094078064
            ],
            "translation" : [
                7.358891487121582,
                4.958309173583984,
                6.925790786743164
            ]
        },
        {
            "name" : "BezierCircle",
            "rotation" : [
                0,
                0,
                -0.7071067690849304,
                0.7071068286895752
            ],
            "scale" : [
                1,
                -0.5030295848846436,
                1
            ]
        },
        {
            "mesh" : 0,
            "name" : "Cylinder",
            "rotation" : [
                0,
                0,
                -0.7071067690849304,
                0.7071068286895752
            ],
            "translation" : [
                0,
                0,
                -3.807717800140381
            ]
        },
        {
            "mesh" : 1,
            "name" : "Cube.001",
            "scale" : [
                1.2798335552215576,
                0.2956784963607788,
                -0.2280585765838623
            ],
            "translation" : [
                12.205768585205078,
                0,
                0
            ]
        },
        {
            "name" : "BezierCircle.001",
            "rotation" : [
                0,
                0,
                -0.7071067690849304,
                0.7071068286895752
            ],
            "scale" : [
                1,
                -0.5030295848846436,
                1
            ],
            "translation" : [
                6.1144866943359375,
                0,
                0
            ]
        },
        {
            "mesh" : 2,
            "name" : "Cube.003",
            "scale" : [
                -4.207759857177734,
                -0.14019620418548584,
                4.457760334014893
            ],
            "translation" : [
                3.097069025039673,
                1.9664236307144165,
                0.03592407703399658
            ]
        }
    ],
    "materials" : [
        {
            "doubleSided" : true,
            "name" : "Material.002",
            "pbrMetallicRoughness" : {
                "baseColorFactor" : [
                    0,
                    0.0782865658402443,
                    0.0019238865934312344,
                    1
                ],
                "metallicFactor" : 0,
                "roughnessFactor" : 0.5
            }
        },
        {
            "doubleSided" : true,
            "name" : "Material.001",
            "pbrMetallicRoughness" : {
                "baseColorFactor" : [
                    0,
                    0,
                    0,
                    1
                ],
                "metallicFactor" : 0,
                "roughnessFactor" : 0.5
            }
        }
    ],
    "meshes" : [
        {
            "name" : "Cylinder.001",
            "primitives" : [
                {
                    "attributes" : {
                        "POSITION" : 0,
                        "NORMAL" : 1,
                        "TEXCOORD_0" : 2
                    },
                    "indices" : 3,
                    "material" : 0
                }
            ]
        },
        {
            "name" : "Cube.002",
            "primitives" : [
                {
                    "attributes" : {
                        "POSITION" : 4,
                        "NORMAL" : 5,
                        "TEXCOORD_0" : 6
                    },
                    "indices" : 7,
                    "material" : 1
                }
            ]
        },
        {
            "name" : "Cube.004",
            "primitives" : [
                {
                    "attributes" : {
                        "POSITION" : 8,
                        "NORMAL" : 9,
                        "TEXCOORD_0" : 10
                    },
                    "indices" : 7,
                    "material" : 0
                }
            ]
        }
    ],
    "accessors" : [
        {
            "bufferView" : 0,
            "componentType" : 5126,
            "count" : 4608,
            "max" : [
                1.0000004768371582,
                7.1144866943359375,
                8.59992504119873
            ],
            "min" : [
                -1,
                -1,
                -1
            ],
            "type" : "VEC3"
        },
        {
            "bufferView" : 1,
            "componentType" : 5126,
            "count" : 4608,
            "type" : "VEC3"
        },
        {
            "bufferView" : 2,
            "componentType" : 5126,
            "count" : 4608,
            "type" : "VEC2"
        },
        {
            "bufferView" : 3,
            "componentType" : 5123,
            "count" : 8928,
            "type" : "SCALAR"
        },
        {
            "bufferView" : 4,
            "componentType" : 5126,
            "count" : 48,
            "max" : [
                1,
                1.3411810398101807,
                2.5880401134490967
            ],
            "min" : [
                -5.77756404876709,
                0.3650994598865509,
                -2.5880401134490967
            ],
            "type" : "VEC3"
        },
        {
            "bufferView" : 5,
            "componentType" : 5126,
            "count" : 48,
            "type" : "VEC3"
        },
        {
            "bufferView" : 6,
            "componentType" : 5126,
            "count" : 48,
            "type" : "VEC2"
        },
        {
            "bufferView" : 7,
            "componentType" : 5123,
            "count" : 72,
            "type" : "SCALAR"
        },
        {
            "bufferView" : 8,
            "componentType" : 5126,
            "count" : 48,
            "max" : [
                1,
                20.238277435302734,
                1
            ],
            "min" : [
                -1,
                -1,
                -1.010672926902771
            ],
            "type" : "VEC3"
        },
        {
            "bufferView" : 9,
            "componentType" : 5126,
            "count" : 48,
            "type" : "VEC3"
        },
        {
            "bufferView" : 10,
            "componentType" : 5126,
            "count" : 48,
            "type" : "VEC2"
        }
    ],
    "bufferViews" : [
        {
            "buffer" : 0,
            "byteLength" : 55296,
            "byteOffset" : 0
        },
        {
            "buffer" : 0,
            "byteLength" : 55296,
            "byteOffset" : 55296
        },
        {
            "buffer" : 0,
            "byteLength" : 36864,
            "byteOffset" : 110592
        },
        {
            "buffer" : 0,
            "byteLength" : 17856,
            "byteOffset" : 147456
        },
        {
            "buffer" : 0,
            "byteLength" : 576,
            "byteOffset" : 165312
        },
        {
            "buffer" : 0,
            "byteLength" : 576,
            "byteOffset" : 165888
        },
        {
            "buffer" : 0,
            "byteLength" : 384,
            "byteOffset" : 166464
        },
        {
            "buffer" : 0,
            "byteLength" : 144,
            "byteOffset" : 166848
        },
        {
            "buffer" : 0,
            "byteLength" : 576,
            "byteOffset" : 166992
        },
        {
            "buffer" : 0,
            "byteLength" : 576,
            "byteOffset" : 167568
        },
        {
            "buffer" : 0,
            "byteLength" : 384,
            "byteOffset" : 168144
        }
    ],
    "buffers" : [
        {
            "byteLength" : 168528,
            "uri" : "tankBodyV2.bin"
        }
    ]
}
